/* XPM */
static char *b2d15cc8a30944d8a41a3893cba927b9ce65wJSCOmX6sgMB[] = {
/* columns rows colors chars-per-pixel */
"40 40 256 2 ",
"   c black",
".  c #010101",
"X  c #020202",
"o  c gray1",
"O  c #040404",
"+  c gray2",
"@  c #060606",
"#  c #070707",
"$  c gray3",
"%  c #090909",
"&  c gray4",
"*  c #0B0B0B",
"=  c #0C0C0C",
"-  c gray5",
";  c #0E0E0E",
":  c gray6",
">  c #101010",
",  c #111111",
"<  c gray7",
"1  c #131313",
"2  c gray8",
"3  c #151515",
"4  c #161616",
"5  c gray9",
"6  c #181818",
"7  c #191919",
"8  c gray10",
"9  c #1B1B1B",
"0  c gray11",
"q  c #1D1D1D",
"w  c #1E1E1E",
"e  c gray12",
"r  c #202020",
"t  c gray13",
"y  c #222222",
"u  c #232323",
"i  c gray14",
"p  c #252525",
"a  c gray15",
"s  c #272727",
"d  c #282828",
"f  c gray16",
"g  c #2A2A2A",
"h  c gray17",
"j  c #2C2C2C",
"k  c #2D2D2D",
"l  c gray18",
"z  c #2F2F2F",
"x  c gray19",
"c  c #313131",
"v  c #323232",
"b  c gray20",
"n  c #343434",
"m  c #353535",
"M  c gray21",
"N  c #373737",
"B  c gray22",
"V  c #393939",
"C  c #3A3A3A",
"Z  c gray23",
"A  c #3C3C3C",
"S  c gray24",
"D  c #3E3E3E",
"F  c #3F3F3F",
"G  c gray25",
"H  c #414141",
"J  c gray26",
"K  c #434343",
"L  c #444444",
"P  c gray27",
"I  c #464646",
"U  c gray28",
"Y  c #484848",
"T  c #494949",
"R  c gray29",
"E  c #4B4B4B",
"W  c #4C4C4C",
"Q  c gray30",
"!  c #4E4E4E",
"~  c gray31",
"^  c #505050",
"/  c #515151",
"(  c gray32",
")  c #535353",
"_  c gray33",
"`  c #555555",
"'  c #565656",
"]  c gray34",
"[  c #585858",
"{  c gray35",
"}  c #5A5A5A",
"|  c #5B5B5B",
" . c gray36",
".. c #5D5D5D",
"X. c gray37",
"o. c #5F5F5F",
"O. c #606060",
"+. c gray38",
"@. c #626262",
"#. c gray39",
"$. c #646464",
"%. c #656565",
"&. c gray40",
"*. c #676767",
"=. c #686868",
"-. c DimGray",
";. c #6A6A6A",
":. c gray42",
">. c #6C6C6C",
",. c #6D6D6D",
"<. c gray43",
"1. c #6F6F6F",
"2. c gray44",
"3. c #717171",
"4. c #727272",
"5. c gray45",
"6. c #747474",
"7. c gray46",
"8. c #767676",
"9. c #777777",
"0. c gray47",
"q. c #797979",
"w. c gray48",
"e. c #7B7B7B",
"r. c #7C7C7C",
"t. c gray49",
"y. c #7E7E7E",
"u. c gray50",
"i. c #808080",
"p. c #818181",
"a. c gray51",
"s. c #838383",
"d. c #848484",
"f. c gray52",
"g. c #868686",
"h. c gray53",
"j. c #888888",
"k. c #898989",
"l. c gray54",
"z. c #8B8B8B",
"x. c gray55",
"c. c #8D8D8D",
"v. c #8E8E8E",
"b. c gray56",
"n. c #909090",
"m. c gray57",
"M. c #929292",
"N. c #939393",
"B. c gray58",
"V. c #959595",
"C. c gray59",
"Z. c #979797",
"A. c #989898",
"S. c gray60",
"D. c #9A9A9A",
"F. c #9B9B9B",
"G. c gray61",
"H. c #9D9D9D",
"J. c gray62",
"K. c #9F9F9F",
"L. c #A0A0A0",
"P. c gray63",
"I. c #A2A2A2",
"U. c gray64",
"Y. c #A4A4A4",
"T. c #A5A5A5",
"R. c gray65",
"E. c #A7A7A7",
"W. c gray66",
"Q. c #A9A9A9",
"!. c #AAAAAA",
"~. c gray67",
"^. c #ACACAC",
"/. c gray68",
"(. c #AEAEAE",
"). c #AFAFAF",
"_. c gray69",
"`. c #B1B1B1",
"'. c #B2B2B2",
"]. c gray70",
"[. c #B4B4B4",
"{. c gray71",
"}. c #B6B6B6",
"|. c #B7B7B7",
" X c gray72",
".X c #B9B9B9",
"XX c gray73",
"oX c #BBBBBB",
"OX c #BCBCBC",
"+X c gray74",
"@X c gray",
"#X c gray75",
"$X c #C0C0C0",
"%X c #C1C1C1",
"&X c gray76",
"*X c #C3C3C3",
"=X c gray77",
"-X c #C5C5C5",
";X c #C6C6C6",
":X c gray78",
">X c #C8C8C8",
",X c gray79",
"<X c #CACACA",
"1X c #CBCBCB",
"2X c gray80",
"3X c #CDCDCD",
"4X c #CECECE",
"5X c gray81",
"6X c #D0D0D0",
"7X c gray82",
"8X c #D2D2D2",
"9X c LightGray",
"0X c gray83",
"qX c #D5D5D5",
"wX c gray84",
"eX c #D7D7D7",
"rX c #D8D8D8",
"tX c gray85",
"yX c #DADADA",
"uX c gray86",
"iX c gainsboro",
"pX c #DDDDDD",
"aX c gray87",
"sX c #DFDFDF",
"dX c gray88",
"fX c #E1E1E1",
"gX c #E2E2E2",
"hX c gray89",
"jX c #E4E4E4",
"kX c gray90",
"lX c #E6E6E6",
"zX c #E7E7E7",
"xX c gray91",
"cX c #E9E9E9",
"vX c #EAEAEA",
"bX c gray92",
"nX c #ECECEC",
"mX c gray93",
"MX c #EEEEEE",
"NX c #EFEFEF",
"BX c gray94",
"VX c #F1F1F1",
"CX c gray95",
"ZX c #F3F3F3",
"AX c #F4F4F4",
"SX c gray96",
"DX c #F6F6F6",
"FX c gray97",
"GX c #F8F8F8",
"HX c #F9F9F9",
"JX c gray98",
"KX c #FBFBFB",
"LX c gray99",
"PX c #FDFDFD",
"IX c #FEFEFE",
"UX c white",
/* pixels */
"Q W R Y I P P L U Y Y T T Y Y U P R T P P E W Y Y R R T U U T E E ! I L W E P Y ",
"R R T Y Y U I I P P I I I I P P I T T L L T R I R E W E T T E Q Y E L H T Y J I ",
"U Y T T T T Y Y P I I U U I I P T E R U U R R Y E Q Q W R R W ! R ! Y P Q E I E ",
"U Y T R R T Y U Y Y T R R T Y Y Q Q W E R E W E E W Q W R R W ! E ^ E Y ~ Q Y ! ",
"R R E R T Y U I Y T R R R R T Y W E R E R R E W R E W E T T E Q I W U L R Y P W ",
"Q W R T Y Y Y Y I U U Y Y U U I R I I T T Y T W R E W R T Y R W I Q T I E T I ! ",
"Q E T U U Y E Q U U Y Y Y Y U U R I I E W T E ^ E W Q W R R W ! I ! E U W R Y / ",
"W R U P I T ! / T R R E E R R T ! T T ~ / ! ^ ' Q ! ~ Q W E Q ~ H R U K Y P L Q ",
"Y ! ! Y I R W R ! W E ! ( ) / Q L U R Y L L T ~ ~ ^ ~ E Y Y W / ! W R W ~ ~ Q R ",
"P R W U P Y T U Q E R E W W E R Y U I I Y T E W K I T R Y I L K T Y U Y R E T I ",
"L T W T Y T T U Q Q W R U U Y R W Y L I W ~ Q R U U T E W R I K Y U I U T T U P ",
"I R ! ! Q E E R ! ~ ! E I I R ~ W T U Y Q ~ ! E ( Q Y U R Q Q W R R R E W E R T ",
"U T Q ~ ! E E W E Q Q R I U E ^ T R E W W Q Q Q ! T L K U R R T E W Q Q Q W W W ",
"I I T Q W Y T W T T T Y U U T W U T E W W W W Q P I Y E W E Y P Y R W W R T R R ",
"Y I Y W E U T ~ W E T T R R Y U T U U R ! ~ W Y U R ! ^ ~ Q W E I T E E T U Y R ",
"W T R ! Q T W _ ( ~ Q Q ~ ! T P W I J U ^ ) W L W Q Q R Y T ! _ U R Q W R Y T E ",
"Y Y E ~ ( ^ R P / E Y W W T E / E W T I T ~ W L ! Y P Y R R E ~ ! R P P U R R R ",
"! E Y Y R W E R ( W R W E Y R ~ T ! ! R T Q ! E ^ R U R W E W ~ ~ W T T E Q Q E ",
"/ ! R T R E W E ~ E R E E R E ~ U ! ( ! R W ^ / ( W T W ! W W ~ Q W R E Q Q W E ",
"! ~ / ( / ~ R U R T T R E W ! ^ Y W ~ ! W Q ^ / ) Q R Q ! E E Q T T R R E E T Y ",
"W ! ^ / ~ W T Y R E E R R W W W E Y U R ! ~ ! Q / E T W Q R T E T R E E E R R T ",
"~ ! E U P I R ! Q ~ ! R T R Y P Q I K T ! Q E T ~ R T Q ! E T E W Q ! ! W W Q ! ",
"~ ! W Y I U Q ( R ! ! T Y E R P W U I E W Y Y E ! R R ! ^ Q W Q Q ! ~ Q E E ! / ",
"W ~ ( ( ^ ! ~ / K T E Y T ~ ~ E R T E ! R L I ~ ~ E E ^ ( ^ ! ~ W Q W R U U W ^ ",
"W R Y T W Q Q W ~ / ^ Q Y U R Q W T Y T R E ! ( ! Q W E R R R R T T T R W W T U ",
"Q E R R Q ! ! Q R E E R Y Y T E W R T T R E Q ^ W E E E E E W Q W W W Q ~ ~ W R ",
"E T Y Y R W E R T Y Y R W W E T Q W E T T E W Q R R R E W Q ! ! R T T E W W T U ",
"Q E T R W Q W E W R R W ^ / Q T W ! Q T T E W R R E W W Q Q Q Q T T T R W W T U ",
"( ^ ! ! ^ / ^ ~ ! W E Q ^ ^ E U E ~ ! T Y W W Y W Q ! ! Q W E R ~ ! ! ^ ( / ~ W ",
"~ Q E R W Q W E E R R R E E T U T ~ ~ T Y Q Q I Q ! ~ ~ ! W R T Q Q Q ! ^ ^ Q E ",
"Q E Y Y T R T Y T R R R T T E W U ~ ~ Y Y ~ ! I E Q ! ^ ~ ! W R Y Y Y T E E Y I ",
") / ~ ! ^ ^ ~ ! T E Q E T R ~ _ I ~ ^ Y Y ^ ~ I T E Q ^ ^ ~ ! W R T T E W W R U ",
"_ ( ^ ! ! ^ ( _ ^ ! Q Q Q E U L W W W W W Q Q Q ^ ( ) ^ W E ! ( ^ Q E E W W E R ",
"~ ! Q W W Q ! ~ / ! E R E W W R E E E E E E E E Q ! Q E R R W ! ^ ! W E Q Q W E ",
"W W W W W W W W / Q T Y R Q ~ ~ R R R R R R R R Q W R R W Q Q Q / ~ W W ! ~ ! Q ",
"W Q ! ~ ~ ! Q W ~ W T Y R W Q W W W W E E E E E / ! E Q / ) / ~ / ~ Q Q ~ ^ ~ ! ",
"W Q ! ! ! ! Q W Q E R E W E T I ~ ! ! ! Q W W W / ! Q ~ ) ` ( ~ / ! Q Q ~ ^ ^ ! ",
"E E E E E E E E Q W E W Q W Y P ^ ^ ~ ~ ! Q Q W Q W W ! ~ ~ ! W ~ Q W W ! ^ ~ ! ",
"Q W E R R E W Q ~ Q W W ! ~ ! W ^ ~ ~ ! Q W E E T E Q Q W R R R ! W R E Q ~ ~ ! ",
"( ^ ! W W ! ^ ( ( ~ W E ! / ) _ ~ ! ! Q W E R R Y W ^ ~ E Y Y R Q E T R W ! ! Q "
};
