/* XPM */
static char *_d1c9c44e5ec4f1b8563e839d375d89ca98B5NpcjBNdgO9a[] = {
/* columns rows colors chars-per-pixel */
"40 40 193 2 ",
"   c #010206",
".  c #03050B",
"X  c #070B0E",
"o  c #08090E",
"O  c #040610",
"+  c #080715",
"@  c #060A13",
"#  c #0C0D13",
"$  c #0D0E19",
"%  c #100F16",
"&  c #0E1215",
"*  c #0D111A",
"=  c #121216",
"-  c #14141B",
";  c #1A161A",
":  c #17181C",
">  c #1A1A1E",
",  c #1A1116",
"<  c #201E1F",
"1  c #1B211D",
"2  c #23261E",
"3  c #151622",
"4  c #1C1C22",
"5  c #1C1724",
"6  c #211D21",
"7  c #2B1F26",
"8  c #241C33",
"9  c #1F2024",
"0  c #1E212C",
"q  c #232225",
"w  c #282725",
"e  c #24242B",
"r  c #2A272B",
"t  c #27292B",
"y  c #2C2B2C",
"u  c #2A2925",
"i  c #32252D",
"p  c #322B2D",
"a  c #32312F",
"s  c #232431",
"d  c #282631",
"f  c #272A34",
"g  c #2B2B33",
"h  c #2B2B39",
"j  c #312D33",
"k  c #382F34",
"l  c #332B39",
"z  c #302533",
"x  c #2F3034",
"c  c #2F313E",
"v  c #343234",
"b  c #393435",
"n  c #393836",
"m  c #34343B",
"M  c #3A353C",
"N  c #37383D",
"B  c #3C3A3C",
"V  c #333832",
"C  c #42363C",
"Z  c #413D3C",
"A  c #3E423E",
"S  c #42413F",
"D  c #2F2D43",
"F  c #352E40",
"G  c #353643",
"H  c #383743",
"J  c #363847",
"K  c #3C3C42",
"L  c #3B3C4A",
"P  c #3D3C52",
"I  c #34355B",
"U  c #3D3A5B",
"Y  c #423D43",
"T  c #4B3D44",
"R  c #403D4E",
"E  c #3E4045",
"W  c #3E414D",
"Q  c #3E4153",
"!  c #444345",
"~  c #44444B",
"^  c #49464C",
"/  c #47484D",
"(  c #4B4A4D",
")  c #55454D",
"_  c #514D4E",
"`  c #4D524B",
"'  c #51524D",
"]  c #424555",
"[  c #484651",
"{  c #474A54",
"}  c #4B4C54",
"|  c #434659",
" . c #46495A",
".. c #4B4D5B",
"X. c #514E51",
"o. c #524B5B",
"O. c #554A59",
"+. c #4E515D",
"@. c #535255",
"#. c #595455",
"$. c #54545C",
"%. c #5D5459",
"&. c #55585F",
"*. c #5C585D",
"=. c #64585E",
"-. c #444E62",
";. c #4B4E62",
":. c #4A4C6C",
">. c #564D63",
",. c #455165",
"<. c #4C5265",
"1. c #4D536A",
"2. c #525464",
"3. c #5D5464",
"4. c #555963",
"5. c #5C5B64",
"6. c #525569",
"7. c #565A6C",
"8. c #5A5C6C",
"9. c #5C5469",
"0. c #5A5D72",
"q. c #525878",
"w. c #575C78",
"e. c #625D62",
"r. c #625768",
"t. c #675E6E",
"y. c #695D6A",
"u. c #6B5C63",
"i. c #625E77",
"p. c #5D616C",
"a. c #5B6064",
"s. c #5E6172",
"d. c #5F6178",
"f. c #646165",
"g. c #6A6466",
"h. c #63636C",
"j. c #6F656A",
"k. c #67686D",
"l. c #6C696D",
"z. c #726E6E",
"x. c #74706F",
"c. c #636574",
"v. c #656975",
"b. c #6B6B75",
"n. c #646579",
"m. c #686578",
"M. c #666A7B",
"N. c #6B6D7B",
"B. c #6F6474",
"V. c #716E7B",
"C. c #736A74",
"Z. c #6E707E",
"A. c #74737D",
"S. c #7C727A",
"D. c #807579",
"F. c #827E7E",
"G. c #585D81",
"H. c #6A6E81",
"J. c #606582",
"K. c #6E7183",
"L. c #6C708D",
"P. c #727584",
"I. c #787785",
"U. c #757986",
"Y. c #7A7A85",
"T. c #747689",
"R. c #777A8B",
"E. c #797B8D",
"W. c #7A7D8E",
"Q. c #7A7B8C",
"!. c #7C7F91",
"~. c #7C7D92",
"^. c #817E84",
"/. c #8A7F87",
"(. c #7B8191",
"). c #7E8192",
"_. c #7E8192",
"`. c #7F8094",
"'. c #848084",
"]. c #84828C",
"[. c #8F8689",
"{. c #8D8689",
"}. c #808193",
"|. c #818294",
" X c #828595",
".X c #828494",
"XX c #858897",
"oX c #93939D",
"OX c #A7A5A8",
"+X c #AAA5A6",
"@X c #B7B5BA",
"#X c #D6CDD0",
"$X c #EEE9ED",
/* pixels */
"<.<.,.<.<.:.<.<.,.<.<.<.;.;.;.;.;.:.-.,.,.-.1.;.>.9.3.O.>.<.<.1.,.<.+.<.2.,.2.+.",
"1.1.<.<.1.<.:.<.<.2.<.<.;.<.<.1.6.;.<.1.q.q.1.6.9.O.O.r.9.2.1.7.2.6.2.2.2.<.6.6.",
"<.<.<.<.1.1.1.6.1.1.1.6.7.0.8.0.w.w.J.q.G.G.w.i.t.y.j.j.5.p.p.7.7.8.8.8.p.8.7.8.",
"n.M.M.M.N.M.H.Z.H.M.K.K.K.K.K.K.M.H.L.:.I I R F l H C C ^ h.K.M.M.v.M.c.v.v.s.c.",
"XX_.XX].`.`.`.).).).(.(.(.(.R.R./.~.~.L.:.U U 8 5 i i k _ V.T.T.P.K.K.N.P.T.P.I.",
"XXXXXX XXX).).).(.~.W.R.R.R.R.R._.t. .| P D P l l i 7 Y M F P n.P.I.R.R.U.I.T.H.",
"_.).}._._._.).(.W.(.R.E.R.(.R.U.c.5.[ K ~ H l l z 3.B.t.o.N.n.R H.Z.N.H.s.c.E.H.",
".X.X}._._.(.(.(.W.R.E.U.R.R.K.c.h.Y.b.H / X.Y ~ T u.B.r.o./.Q.L f h e f s J K.H.",
").`.`.~.~.~.E.T.E.E.P.T.I.~.M.7.W.Q.+.W $.K ! f.O.z Y [ ^ @.B g { ..b.P.Z.K P.K.",
"`.`.~.~.E.E.E.E.E.H.E.T.I.c.7.I.I.U.c 4.E K Y / R 6 4 M v B @.! K  .+.8.s.] K.H.",
"~.~.~.W.E.~.R.R.P.Q.V.I.K.8.^.Q.Y.a.x p.4.4.( N ^ q w n m ~ ~ m K ~ H H J ] K.N.",
"~.E.E.E.E.U.U.U.P.I.Q.V.8.b.N.$.E 1 v @.*.5./ $.Z < t r E } G e R / [ ..c 4.R.b.",
"~.R.U.U.T.P.A.P.I.A.b.$.[ $./ @.A 2 V ! ' #.j =.@.v t v K o.;.R [ } } $.h 9.K.c.",
"E.R.U.U.U.U.(.U.N.$.~ K Y m ^ @.` ` ' ' ' n y z.( g x H d ~ o...$.4.[ L h c.b.K.",
"T.U.P.P.U.(.v.a.} v Y n b n j b N N A n S p S f.v B R M q ^ ( X.[ X.~ H G m.c.M.",
"P.P.P.K.K.N.&.A j ! v N B b v b v g V y 2 2 Z @.e b.{ l r ! @.! / ~ ~ m g c.N.M.",
"(.v.A.(.k.^ B B b n C b b b b j m y v q w y B N = ; 4 g g d m g y N v e L c.c.M.",
"v.A.b.$.X.N ! B Z p v b C v i v g r q q v B ! A # = - $ - + 3 - : : - & E N.M.c.",
"a.a.b.} / K n B b b Z j a v v v r 6 q b ^ @.@.e ; - - 4 5.P.H - = : 3 - +.b.c.c.",
"a.4.b.5.K ! B B n a V a v x y e 4 e K ~ $.$.5.m   6 - l V.5.m.4 : w g t 8.c.s.M.",
"4.l.].@X^.Z Z n n a n a v g r 9 e K $.5.k.$.2.M 4 % % g V.[ Y.; > 1 q e p.p.8.c.",
"$.b.*.+X$X+X( Z S a v a j 6 q t $.8.I.A.~ / $.6 % - % q b.b.5.= : - : 3 +.$.2.6.",
"*.l.z.{.g.F.x.g.S y w w r < j $.A.I.oXk.e e ~ e = - - . B A.5 = : : : 4 { | ..+.",
"f.*.^ '.< ' x.F.'.+X+X%.6 r e./.^.A.I.} 4.g e 4 + - % # ; 5 % = - = * 4 } } +.| ",
"@.V ! _ ( z.=._ g.{.#X[.C =./.S.5.h.} k.b.} 9 : o o # # # # X = % # # 5 } ..<.| ",
"_ < @.' #.x.%.#.=.g.D.Z T u.=.%.( N @.k.X./ g 3 % % # # # # X % % # % - ~ | } ..",
"X.q w ( ^.l.@.b b %.T i ) T T T @.N h.5.( $.t -   . . . @ # X X . o # $ W +.| ..",
"^ r >   q @.! < 6 , , 7 T C T =._ n f.~ N ` t = g 6 3 O . . . . # O @ + K <.| ..",
"@.9 q 9 o ( M   = = < < b $.=.Z r Y 5.y N } m R ] [ ] ] E G f 0 5 - + + c +.Q +.",
"/ e E / = ! 9 . X # = w b p i q ; v 5.K m o.} ] ] ] ] |  .;.;... .} ] H Q +.Q  .",
"@.! t 5.@.H q X X   & X - w = q > ! *.Y [ r.[ ] [ ] | -.| -.Q | [ ] | } ........",
"/ @.W / / ` N X & &   & : = 9 4 = M / e H 2.J L Q ] | | Q Q |  .| { ] ..] Q ,. .",
"/ } ^ ^ ~ / N t e - # # - : : = X x +.V 4.<.L Q Q Q Q  .Q  . . .Q Q  . . . . . .",
"( ( / / ~ / E K K 4 o @ # # # o . 0 4.+.4.{ E { Q Q Q Q Q  .Q  . . . .Q Q  . . .",
"/ / ~ W W E ~ { Q f * @ @ @ .   . * E 4.+.W ] ] Q  . . .Q  . . . .Q Q  . . . . .",
"+.{ } ( ..~ ..2.a.+.L c s 5 3 $ @ O 0 W Q W ..Q  .Q  .Q  .Q Q Q Q { Q  . .Q  . .",
"p.a.p.6.4.6.7.8.<.<.+...Q Q Q Q W W W ..] ] | ]  .Q Q  .Q  .Q  . .Q  .Q  . .Q  .",
"p.p.p.7.7.p.8.8.7.<.| | Q Q Q ] W ] Q Q ] | | ] Q  . .Q  .Q  .Q Q  .Q  . .Q {  .",
"p.7.7.0.7.7.7.7.7.;.| ..Q Q Q { ] Q ] Q ] | ] U Q Q Q  .Q Q Q  . .Q Q Q Q Q  .Q ",
"p.p.7.s.0.s.7.0.6.6.1.<... . .Q | Q ] ] ] Q ]  .Q  . .Q Q  . .Q Q  . .Q Q  .Q  ."
};
