/* XPM */
static char *_908d0a7dc04445c9eebae2f80dcb312ALvSKJjX3BliTAOD[] = {
/* columns rows colors chars-per-pixel */
"40 40 237 2 ",
"   c #030304",
".  c #090706",
"X  c #0A0807",
"o  c #05050A",
"O  c #08070C",
"+  c #04090C",
"@  c #0B0B0D",
"#  c #030907",
"$  c #010513",
"%  c #090613",
"&  c #040A14",
"*  c #0D0C12",
"=  c #00051C",
"-  c #030D1B",
";  c #0A0D1A",
":  c #0E061D",
">  c #100F15",
",  c #100F1F",
"<  c #0C111B",
"1  c #061118",
"2  c #131314",
"3  c #14131B",
"4  c #1B1B1B",
"5  c #020C24",
"6  c #0C0B21",
"7  c #010C2A",
"8  c #090F2C",
"9  c #060527",
"0  c #041323",
"q  c #0A1424",
"w  c #02122B",
"e  c #0C142C",
"r  c #0B1A28",
"t  c #111323",
"y  c #151D2C",
"u  c #161928",
"i  c #040C35",
"p  c #0B1434",
"a  c #0C1B34",
"s  c #01153C",
"d  c #0C163D",
"f  c #021A3C",
"g  c #0D1B3C",
"h  c #021532",
"j  c #131B33",
"k  c #131B3C",
"l  c #141933",
"z  c #211F2C",
"x  c #1C212D",
"c  c #1B2334",
"v  c #1D243D",
"b  c #162439",
"n  c #07253F",
"m  c #232323",
"M  c gray17",
"N  c #24262B",
"B  c #232B3C",
"V  c #26263A",
"C  c #313131",
"Z  c #28303D",
"A  c #051842",
"S  c #0C1C42",
"D  c #011A4D",
"F  c #111D43",
"G  c #161E48",
"H  c #031957",
"J  c #070C46",
"K  c #0D214C",
"L  c #072546",
"P  c #132343",
"I  c #1A2542",
"U  c #1C2D44",
"Y  c #15234B",
"T  c #15294E",
"R  c #19294B",
"E  c #082557",
"W  c #152454",
"Q  c #142B55",
"!  c #1B2B54",
"~  c #132B5B",
"^  c #1A2B5B",
"/  c #192653",
"(  c #1D345B",
")  c #17345A",
"_  c #212F44",
"`  c #263244",
"'  c #26364B",
"]  c #333C4B",
"[  c #2B3B55",
"{  c #243658",
"}  c #212356",
"|  c #001072",
" . c #001D68",
".. c #052868",
"X. c #1B2C60",
"o. c #152C66",
"O. c #143163",
"+. c #1C3364",
"@. c #1C3B6C",
"#. c #183569",
"$. c #012C75",
"%. c #023273",
"&. c #06397C",
"*. c #1A3C7C",
"=. c #193A76",
"-. c #0E3765",
";. c #243962",
":. c #253A68",
">. c #213C72",
",. c #223F7B",
"<. c #202E77",
"1. c #334255",
"2. c #3B4A5D",
"3. c #1B446D",
"4. c #1B4174",
"5. c #1C437A",
"6. c #084178",
"7. c #2A4069",
"8. c #354663",
"9. c #394A69",
"0. c #3E516F",
"q. c #2C4472",
"w. c #22427B",
"e. c #29447C",
"r. c #24487B",
"t. c #344B73",
"y. c #364E78",
"u. c #395377",
"i. c #435679",
"p. c #43526F",
"a. c #023C84",
"s. c #00308C",
"d. c #003995",
"f. c #213B8F",
"g. c #003FA0",
"h. c #0D418A",
"j. c #024488",
"k. c #164583",
"l. c #1D4B84",
"z. c #184A87",
"x. c #19528D",
"c. c #0C4892",
"v. c #1C4B9B",
"b. c #195593",
"n. c #0D569A",
"m. c #244B82",
"M. c #284B88",
"N. c #255588",
"B. c #395587",
"V. c #264D99",
"C. c #275997",
"Z. c #395997",
"A. c #2D649D",
"S. c #37679D",
"D. c #0047A5",
"F. c #014EB1",
"G. c #0D58AB",
"H. c #2759A6",
"J. c #345EA1",
"K. c #1A67A6",
"L. c #1460BE",
"P. c #166AAF",
"I. c #3568A5",
"U. c #2766B4",
"Y. c #2E7BBA",
"T. c #2A7AB8",
"R. c #387CB7",
"E. c #2E6EAC",
"W. c #425B8D",
"Q. c #455A85",
"!. c #425B91",
"~. c #446696",
"^. c #586E95",
"/. c #687B9C",
"(. c #4472A9",
"). c #456EB7",
"_. c #5071AA",
"`. c #1667C9",
"'. c #2976CA",
"]. c #3A7BC5",
"[. c #307EC0",
"{. c #2C7AD7",
"}. c #367FD6",
"|. c #4976C9",
" X c #3786B9",
".X c #2F8EBB",
"XX c #4A86BA",
"oX c #3382C4",
"OX c #3B8AC3",
"+X c #3284CA",
"@X c #3989CA",
"#X c #369BC5",
"$X c #398CDB",
"%X c #3BA3C8",
"&X c #3B8DE6",
"*X c #4585C7",
"=X c #4798CB",
"-X c #5793C8",
";X c #4A8CD4",
":X c #518AD9",
">X c #4797DA",
",X c #5C9DD5",
"<X c #528FC5",
"1X c #659ACE",
"2X c #4FA2CE",
"3X c #47A5D5",
"4X c #53A6D4",
"5X c #56B3DD",
"6X c #4BB7DB",
"7X c #63A8DC",
"8X c #4A99E3",
"9X c #569AE7",
"0X c #4695EA",
"qX c #619AE4",
"wX c #4DA0EE",
"eX c #5AA8EA",
"rX c #5AB4E7",
"tX c #5AA8F6",
"yX c #5FB5FF",
"uX c #65AEE4",
"iX c #66B9E8",
"pX c #65ACFC",
"aX c #64BAF7",
"sX c #72B4F5",
"dX c #5EC8F0",
"fX c #64C3EA",
"gX c #6CC2FE",
"hX c #67C8F4",
"jX c #73CEFB",
"kX c #7AC7FD",
"lX c #6AD6FF",
"zX c #75D2FD",
"xX c #79D9FF",
"cX c #8BBBFF",
"vX c #83DAFF",
"bX c #86CBFF",
"nX c #96F3FF",
/* pixels */
"4 @ # X .             o o $ O + o + - 0 i d d S S k g a a a p p 8 5 $ o         ",
"4 2 . . .           o o o o O O o $ 1 e p d F G F F P P b g g d p 5 = $ o       ",
"4 2 @ .               o o O o O o & 0 e k G / / Y Y P P P P F p p 9 = - +       ",
"m 2 @ .               o o o % O + % q e d G / ^ ^ / T T / / Y F l w - & +       ",
"m 4 @ X             o o o O O o @ ; 6 l F G ^ X.( ( ^ ! ! ^ W Y g e 5 - + #     ",
"m 4 @ X .             o o o O @ * ; t l G W X.+.>.#.+.+.;.X.X.W S a 0 < 1 #     ",
"m 4 2 * @ .   o       o   o O % ; 3 e k K ^ #.@.w.@.@.@.>.<.<.^ P a r 1 1 #     ",
"M m 2 2 @ @ o           o o O % ; : p F W X.,.w.m.5.4.=.w.,.=.o.K a a r < #     ",
"M m m 4 2 .   X o   o o o O O % 6 6 k / D O.m.N.C.S.N.5.M.M.*.O.Q g a e $     . ",
"M m 4 2 @     #   o o o O O O % t j p A +.w.k.x.-XXXXXS.k.k.z.=.D A P b 1       ",
"M m 2 2 @ X # # .   o o O O + % t p S Q #.=.S.,X7X X X7X<XC.z.l.O.E g a - + +   ",
"C m 2 2 2 * @ X   o o O O O + % 8 7 K ) E x.4XbX=XvXiX4XkX7Xb.k.#.E S h - $ +   ",
"C M m 2 2 @ @ X o X O @ O O O % e F A D N.<XuXrXzXxXnXvX2XuXiXS.o...W g =   o   ",
"M m m 2 2 2 @ X @ @ O O O O @ & 7 I s -.1X7X=XrXxXxXhXhXjXiX4X7XI.M.W i = - @   ",
"m m m 2 @ 2 2 X * @ @ O O O * ; 5 f ) ~.-X=X3XxXlXlX6X%XfXxXuXXX_.!.~ i = ; *   ",
"4 m m 2 2 2 2 2 * @ O o o O % ; 7 f Z.(.x. XxXlXdX%X.X%X5XjXjX4Xh.M.m.Q 5 $ & X ",
"m m 4 2 2 2 2 @ > @ O o o + @ $ 7 Q.(...&.>XeXxX5X.X#XrXhXjXhX=Xn.c.S.~.= - +   ",
"m 4 2 2 2 2 2 @ @ O o o O @ @ - 7 _.M.h.R.K.=XrXfX5X3XtXgXgX3X.XoXU.A.N.5 1 1 # ",
"4 4 4 2 4 2 2 * @ o o o O * * ; 5 B.*.H.U.*XOX.XiXiXrXaXgXeXoXT.>XoXA.3.= 1 +   ",
"4 4 4 2 4 2 2 @ @ @ O o O O % ; 5 Q.Z...:X@XK.E.=X5XkXkXtX$X@X%X$X*XS.3.w 0 +   ",
"4 4 2 4 4 2 2 2 * @ @ o O % @ ; 7 u.,.).E.|.R. XY.@XtXyX+X'.0X8X;X;X(.3.h r + * ",
"2 4 4 2 2 2 2 @ 2 @ O o + @ O % = t._.C.9X*XR.>XY.T.'.'.L.'.0X>X9X*XS.@.w 1 # 2 ",
"2 2 2 2 2 @ 2 * > @ @ O O @ * & a ( ~.).].9X[.P.OXoXG.s.F.{.$X8X9XI.l.L 0 $   X ",
"2 2 2 2 2 2 * * @ @ O O @ * * < 0 f i C.sX:X9XP.+X>XD.| F.{.&XtXuXC.-.f - 1     ",
"2 X X @ 2 @ 2 X X o o o o O % & 1 ) E ..:X9X>X3X+XP.&Xg.`.`.wXtX*X&.E n - o @ . ",
"@ 2 X X @ 2 2 @ @ @ @ O O o X & + u.3.E $.>X8X>XyX+Xd.L.F.&XyXtXI.=.E h $ o @   ",
"2 2 X 2 2 2 @ @ > O O O O O O % a n w.%.c.a.[.eX>XgXG.s.L.tX0XY.x.4.Q w $ @ @ . ",
"X @ 2 2 @ 2 @ @ O X O O O > > , - R @.V.a.c.n.[.jX@X0X}.{.tX8Xj.l.w.K 5 - < @ X ",
"@ @ X 2 2 2 @ # X X O O @ % > 3 $ { +.*.V.H.a.j.].bX'.wX9XsX$.C.m.@.L 7 < * X X ",
"X X @ @ X @ @ @ * @ > o @ @ % > c j H o.|.V.a.x...:X:X|.pXd.x.6.r.~ h w < @ X @ ",
"2 X @ X @ @ X @ * @ % O O O * % : G J <.f.).V.b.%.a.v.cXH.$.b.N.w.K g j ; o * X ",
"2 @ @ X 2 @ 2 @ @ @ X O O @ > : : 9 } X.f.V.J.&.z... .V.$.k.m.N.#.K P v & * 3 X ",
"@ 2 @ 2 2 @ @ 2 @ @ # X * * * < : V p } ^ o.Z.*.S. . .H ..M.e.B.! U _ b x ; < * ",
"2 @ @ @ 2 @ @ @ @ @ @ @ * * * * 3 6 v G / q.M.M.~.M.H H o.!.W.( [ v r 0 r u t < ",
"2 @ @ @ @ @ 2 2 # # 2 2 * > * + z % V G Y q.>.B.Z.f.*.D ,.W.Q.:.' ' e ' q Z & & ",
"2 2 2 2 @ @ 2 2 2 @ X @ > * * % u , u _ R ( q.y.w.B.H >.B.^ Q.t.[ U 2.c ] ; u & ",
"2 4 2 2 @ 2 2 2 * > @ * @ * > * 3 % ; c U ( t.B.W.) >.~ ~.;.;.8.8.1.` ` r x u x ",
"2 2 2 2 @ 2 2 2 2 > * @ * > > > 4   c y I 8.;.u.w.y.;.q.Q.{ Q.[ 8.' Z c B c x q ",
"2 2 2 2 2 2 2 2 2 2 > > > 2 2 * 4 3 N c v [ { { ( u.+.^.S /.' p.1.1.b 2.v 1.< < ",
"2 2 4 2 2 2 2 2 2 2 2 3 3 3 > * @ m < B ` U 0.! t.{ t.7.t.i.0.U 8.1.2.` ] x M x "
};
