/* XPM */
static char *fba17bb6541447edd1b5fbb7b4f163e0MuE0pz380xHHf1vP[] = {
/* columns rows colors chars-per-pixel */
"40 40 251 2 ",
"   c #07090A",
".  c #12090D",
"X  c #0D1206",
"o  c #13150F",
"O  c #0A0C12",
"+  c #050B14",
"@  c #0D1214",
"#  c #06151A",
"$  c #121316",
"%  c #14141C",
"&  c #1B1B1B",
"*  c #181818",
"=  c #140E18",
"-  c #360A00",
";  c #3B1201",
":  c #271A18",
">  c #361A18",
",  c #1B211F",
"<  c #292719",
"1  c #39221C",
"2  c #1B1D24",
"3  c #171A26",
"4  c #0E1328",
"5  c #251A24",
"6  c #260D20",
"7  c #1C2325",
"8  c #1A2529",
"9  c #192734",
"0  c #232323",
"q  c #23242B",
"w  c #2A252B",
"e  c #252A2D",
"r  c #2B2B2D",
"t  c #292825",
"y  c #37292A",
"u  c #36322E",
"i  c #2B2B33",
"p  c #272935",
"a  c #332D34",
"s  c #392930",
"d  c #2C333C",
"f  c #2D3436",
"g  c #333335",
"h  c #35353B",
"j  c #3A353A",
"k  c #3B3B3C",
"l  c #373838",
"z  c #4A0C01",
"x  c #4C1400",
"c  c #481706",
"v  c #551402",
"b  c #5A1501",
"n  c #551B02",
"m  c #5B1A02",
"M  c #571A09",
"N  c #571006",
"B  c #631C01",
"V  c #691D02",
"C  c #651905",
"Z  c #731C04",
"A  c #791A08",
"S  c #4A2108",
"D  c #5A2405",
"F  c #452819",
"G  c #562615",
"H  c #4A3315",
"J  c #642102",
"K  c #6C2201",
"L  c #6B2809",
"P  c #722502",
"I  c #7C2402",
"U  c #742B03",
"Y  c #7C2A02",
"T  c #75280B",
"R  c #7C3404",
"E  c #6C3112",
"W  c #572C22",
"Q  c #443C3C",
"!  c #473637",
"~  c #52352D",
"^  c #643523",
"/  c #793A26",
"(  c #3A433B",
")  c #46443E",
"_  c #59423C",
"`  c #714A37",
"'  c #2A3742",
"]  c #3C3C43",
"[  c #373944",
"{  c #303852",
"}  c #1E2E45",
"|  c #433D44",
" . c #443948",
".. c #503B44",
"X. c #3B424B",
"o. c #384346",
"O. c #3E4955",
"+. c #2F4855",
"@. c #43454A",
"#. c #484546",
"$. c #564947",
"%. c #4A4D53",
"&. c #474854",
"*. c #544D54",
"=. c #4A5257",
"-. c #565358",
";. c #6D5749",
":. c #59655E",
">. c #4F645F",
",. c #6C655C",
"<. c #4A5762",
"1. c #585B66",
"2. c #4C5E74",
"3. c #645D6A",
"4. c #596567",
"5. c #5B6675",
"6. c #496A71",
"7. c #666669",
"8. c #736968",
"9. c #676B74",
"0. c #726B79",
"q. c #697278",
"w. c #78787C",
"e. c #71746D",
"r. c #841E00",
"t. c #8C1E00",
"y. c #921703",
"u. c #832502",
"i. c #8B2303",
"p. c #842C02",
"a. c #8D2C02",
"s. c #852C0C",
"d. c #8A290B",
"f. c #952601",
"g. c #942B01",
"h. c #9C2C02",
"j. c #992908",
"k. c #8B3103",
"l. c #893605",
"z. c #943302",
"x. c #9C3301",
"c. c #9B3B03",
"v. c #993809",
"b. c #883814",
"n. c #963614",
"m. c #8A2911",
"M. c #A62A08",
"N. c #A43401",
"B. c #A43B01",
"V. c #AC3C02",
"C. c #A3350A",
"Z. c #AC3B0A",
"A. c #A93506",
"S. c #B53600",
"D. c #B43C02",
"F. c #B83B04",
"G. c #B7320D",
"H. c #8B3622",
"J. c #C43A03",
"K. c #C02F00",
"L. c #984508",
"P. c #8B4417",
"I. c #954B0D",
"U. c #AC4303",
"Y. c #A54A03",
"T. c #A84606",
"R. c #BC4402",
"E. c #B64707",
"W. c #B95604",
"Q. c #A74813",
"!. c #B74814",
"~. c #AD5418",
"^. c #B65414",
"/. c #A55302",
"(. c #BA6406",
"). c #974D22",
"_. c #874B32",
"`. c #8A512E",
"'. c #AB4C27",
"]. c #8F6337",
"[. c #B16630",
"{. c #C34402",
"}. c #CC4B03",
"|. c #C54906",
" X c #D64A04",
".X c #C75607",
"XX c #D75905",
"oX c #CB5613",
"OX c #D55A11",
"+X c #C86608",
"@X c #D86808",
"#X c #C96A15",
"$X c #CF730A",
"%X c #E76803",
"&X c #F77503",
"*X c #E77914",
"=X c #ED6E0A",
"-X c #D06825",
";X c #E87121",
":X c #997558",
">X c #946657",
",X c #AF7450",
"<X c #92736B",
"1X c #A6796B",
"2X c #B35B47",
"3X c #C27849",
"4X c #BE833F",
"5X c #DA8D13",
"6X c #DF901E",
"7X c #AC825C",
"8X c #8A887E",
"9X c #B9967C",
"0X c #6C7884",
"qX c #757A87",
"wX c #6C7286",
"eX c #5F7686",
"rX c #817D89",
"tX c #827F92",
"yX c #798389",
"uX c #788896",
"iX c #7C9598",
"pX c #85858B",
"aX c #858996",
"sX c #8C9498",
"dX c #999399",
"fX c #938C8D",
"gX c #AD948B",
"hX c #8A99A9",
"jX c #949CA4",
"kX c #9898A7",
"lX c #888FA2",
"zX c #9AA4AA",
"xX c #9BA8B4",
"cX c #87A2AD",
"vX c #A8A5A7",
"bX c #A8B6BB",
"nX c #B6B4B9",
"mX c #A4AAB4",
"MX c #C7B6BC",
"NX c #A9B8C9",
"BX c #B8BAC4",
"VX c #A8AEC4",
"CX c #99B6C4",
"ZX c #C0B8C5",
"AX c #B4C6D1",
"SX c #C2C8CD",
"DX c #C5C9D5",
"FX c #E1E0DC",
"GX c #DEDEEA",
"HX c #EBE9F7",
"JX c #DAE5E9",
/* pixels */
"c ; ; ; n B J J V m ; - N C B L T E F F F c v C C V T b v N z M M m B B B J n v ",
"x x S c D D P B D x c z - M G F ! Q | j [ a y F M T T C N x n v m m J J J J b v ",
"n D D n J U L m S b v z S F #.| ) Q Q  .| j u u u G N z v n n C B B K J B B J J ",
"T K K R U K L L b L b z ~ @.@.Q k l j k k l h i a j W z v C b J K K P K J L K B ",
"E B K R U U U J Z V _.<X%. .Q u g w r g ( @.] h y a ! ^ N Z T L U U T P K K P K ",
"c n B T E U K K B G 8XSXvXvXdXqXs t t r u Q #.Q j s [ $.C t.a.m.l.l.Y I Y I p.Y ",
"c M P T V b G ` 1XvXSXAXzXsXnXzXg w w e r h ] ] i j [ -.;.P.l.a.z.z.a.k.k.k.z.a.",
"- v k.x.u.:XMXDXGXGXHXHXpX%.mXyX0 q r g r g k f y t s *.0.nXgX[.T.L.z.v.z.z.C.C.",
"x Z i.a.v.2XgXbXBXDXqXl i % jXqXe h i p q e g u e < t Q 7.7.aXjXdXd.Y c.k.c.T.x.",
"A r.j.x.D.x.1XFXDXmXnX4.q 4.qX0X4.1.9.q.0.q.#.r w t 8 5.)   # d pXfX_.A z.R Z.z.",
"Q.u.c.E.|.[.fXDXGXDXmXyX7.9.uX0X0X<.0XaXxXzXo.t y & : fXpXf X.AXAXVXnX:Xa.I g.a.",
"#Xh.Y..X}.3XpX_ aXSXnXe.zXqX5.qXq.=.0XaXcXyX) ) ( r 5 rX( X uXBXnXnXzXdX>Xi.b.a.",
".Xn.P.[..X[.ZXw.0.jX7.qXq.qX=.4.0X0XhXhXcXyX7.8.,._ 1.aX).P 0XxXCXbXDXq.q.1Xi.I.",
"=X>X2.+.;.:XdX*.@.@.e q * @.p 3 9 ' { o.<.-.7.8.yX5.e.,.z.h.*.iXhXxXAXpXq.,.M..X",
"7X8.fXX 8 fXw.[ p k + @   * ] % @ 3 $ 3 7 2 % $ p 8 S l.Z.B.W O.w.pX>.7 & , b.}.",
"].0 lX$.@ 8.#.r $ @.7 h a $ & @   $ . . O $ @ i %.#.n.U.D.Y.$.{ ' 3.w * p @ < x.",
"Q.t 1.sXp #.kXg % < [ 1.O.0 + 6 8 0 p p 8 r @ p #.d / Z.B.U.).5.q } [ # # F : R ",
"Q.~ h mX%.h y g f d =.&.p o o 9 '  .h [ f ,   g { ! v.J.N.D.E.`.0 < ^ F D Q.!. X",
"c.` t <X8X| 0 l j 5 d f & X + : & ' d @ 7 @ $ q w n.R. X XV.N.D.k.z.Y.Q.^.+X^.S.",
"u.Y ! *.7.X.< *.] & 7 b.Q.Y.H # > 9 d a * j a 3 E V.D.{.oXV.a.z.c.Z.T.B.U.L.N.D.",
"U V ~ 4.9.=.* q 5 3 H |.|.&XOX> $ p p h & 0 2 ~ v.x.j.C.A.M.g.p.l.i.k.z.l.d.|.E.",
"J B ~ 1.1.e 0 2 9 y c.oX!.R.}.J 9 k 7 * s q a / t.f.h.k.f.h.a.u.i.A V Z Z m.J.J.",
"M b ^ 1.X.u % p 2 ^ {.|.%XOXOXQ.p p 8 t % 9 &.W j.g.f.t.a.j.i.T A A m.i.s.l.D.|.",
"M m C ..o.#.q # 4 > N.S. X.XXX XG 8 9 5 * 8 &.=.H.f.l.s.i.i.r.I I I k.p.b.v.N.E.",
"M z v ..| @.e & ] +.E F.E.y.m.}.g.' p o p 4 p -.0._.y.z.m.i.p.d.p.s.d.k.f.f.C.A.",
"x c n 1 Q p { h 3.yXqXZ.D.t.u.B.C.> 4 : 2 2 i k 2.<XH.i.k.n.z.x.u.u.a.i.C.Z.N.R.",
"V M M R < 2 X.l  .q.lX<X|.z.n.h.C.T 3 . % i i q j O.e._.v.M.c.L.u.a.!.A.N.R.{.XX",
"E.c.Q.oXx 8 #.q h &.qXsX,XW.A.N.x.h.D . * 8 w p d o.1.uX8X).N.u.d.C.|.{.D.oX}. X",
"*XT.c.V.V w ] d f ] 9.sXjX7X{.Z.z.C.g.1 % 3 f [ j +.&.1.iXkX<Xf.f.F.F.S.R.OX X X",
"^.I r.L.Q.s % g  .| 1.wXvXAX,XU.h.v.N.P 3 % 8 h [ <.=.<.eXkXkX;.D.|.S.F.F.|.J.{.",
"$X+X#X+X$XE O r &.$.5.9.pXxXxX-XS.z.N.g.~ $ = d k O.1.1.%.=.] ^ ;XOXS.S.S.S.F.F.",
"@X*XW.@X*X[.# ] &.4.9.1.{ O.o._.S.v.~.N.s.i e w p &.9.6.[ p @ E XX XF.D.OX|.A.j.",
"$X@XB.(.#X6Xo.<.&.1.w.%.& 5 @ P.}.!.F.Y.oXQ.,.q.9.1.5.0.&.3   G &X6X%XXX=X%Xz.M.",
"5X/.T.#X^.5X7XBXaXwXwXO.8     b.{.F.XXW.W. X_.%.*.1.9.@.] 7 *.8. XXXXX=X&XXXp.j.",
"$X$X#X^.^.5X].( #.-.| [ 8 o.O./ K.M.E.}.R.).:.%.t 4 4 o X ] qXbXgX'.J.@X*X@Xa.j.",
"(..XQ.Z -X7XqXs   . X O l dXNXgXT.S.M.J.~.0.qXrXpX7.2   & 9.uXqXNX9XoX|.^.@XR.G.",
"T.R R ~.9XzXjXaXX.$   3 -.wXVXSX<XZ.C.M.].qX9.9.9.yX,.$ i eX0XuXtXVX[.F.Z.W.W.Z.",
")./.(.:XhXsXkXhXcX2.  i >.4.uXbXkXI.Z.D.n.A V m./.^..XOXQ.F q g  .<.` D.Z.U.x.m.",
"L.P.L.R _ ) ` ` ).'.P.b.` ` 1.lXfX~.{.OX-XM.j.h.{..X=X%XXXW.W.f.r.u.|.T.z.z.C z ",
"R J Z l.I.R Y.W.U.E..X{.B.~.E 1 H W..XOXE.M.y.M.V.Z.^.+X@X.XR..X!.OX.Xz.j.C.M - "
};
