/* XPM */
static char *ce063c2ed14940059b5d8894cd32fa46P9flKHZLU2lx7828[] = {
/* columns rows colors chars-per-pixel */
"40 40 187 2 ",
"   c #161716",
".  c #1B1C1B",
"X  c #1C201E",
"o  c #242523",
"O  c #272826",
"+  c #292A26",
"@  c #272728",
"#  c #272928",
"$  c #2A2B2B",
"%  c #322F2B",
"&  c #34342F",
"*  c #2C2F30",
"=  c #2D3130",
"-  c #2C3A3D",
";  c #333432",
":  c #393733",
">  c #3B3A36",
",  c #34393A",
"<  c #3C3C3C",
"1  c #413F3C",
"2  c #42413E",
"3  c #2E3C43",
"4  c #353F41",
"5  c #3B3F43",
"6  c #403F40",
"7  c #2F4042",
"8  c #344547",
"9  c #3C4244",
"0  c #354549",
"q  c #3A4649",
"w  c #3B494D",
"e  c #3E4D50",
"r  c #464646",
"t  c #494746",
"y  c #494847",
"u  c #484748",
"i  c #444B4C",
"p  c #4B4B4B",
"a  c #504F4F",
"s  c #4D504F",
"d  c #51504E",
"f  c #454F53",
"g  c #4F4F50",
"h  c #455254",
"j  c #4C5254",
"k  c #49575A",
"l  c #4C5B5D",
"z  c #525253",
"x  c #585752",
"c  c #555856",
"v  c #5A5955",
"b  c #525758",
"n  c #585758",
"m  c #555B5C",
"M  c #5C5C5C",
"N  c #5C605E",
"B  c #61605D",
"V  c #495760",
"C  c #465B66",
"Z  c #4D5E61",
"A  c #545E63",
"S  c #5A5D60",
"D  c #615D60",
"F  c #4D6166",
"G  c #4A636E",
"H  c #536366",
"J  c #5D6263",
"K  c #53656B",
"L  c #5C6669",
"P  c #55696B",
"I  c #5C6A6D",
"U  c #556B77",
"Y  c #5E6D72",
"T  c #5D7174",
"R  c #636463",
"E  c #686767",
"W  c #6A6964",
"Q  c #636A6C",
"!  c #6B6C6D",
"~  c #716F6E",
"^  c #6B716F",
"/  c #636C72",
"(  c #6D6F71",
")  c #647174",
"_  c #6B7274",
"`  c #667578",
"'  c #6C767C",
"]  c #667A7C",
"[  c #6D7A7D",
"{  c #747373",
"}  c #767877",
"|  c #727778",
" . c #787778",
".. c #747B7B",
"X. c #7C7C7C",
"o. c #546F82",
"O. c #587485",
"+. c #667C80",
"@. c #6C7D81",
"#. c #697F88",
"$. c #727D82",
"%. c #7A7E82",
"&. c #6C8184",
"*. c #6D848A",
"=. c #728285",
"-. c #7D8385",
";. c #74858A",
":. c #7A868A",
">. c #748A8C",
",. c #7D8B8D",
"<. c #6F8691",
"1. c #7C8C92",
"2. c #798F9C",
"3. c #769093",
"4. c #7C9296",
"5. c #7D949B",
"6. c #7F96A2",
"7. c #828384",
"8. c #828788",
"9. c #838A8C",
"0. c #898A8C",
"q. c #838D92",
"w. c #8B8E93",
"e. c #849294",
"r. c #8B9495",
"t. c #859198",
"y. c #8A959B",
"u. c #839A9D",
"i. c #8A9B9C",
"p. c #919C9D",
"a. c #869BA2",
"s. c #869BA5",
"d. c #8B9DA4",
"f. c #929DA3",
"g. c #8AA2A4",
"h. c #8EA2AB",
"j. c #8EA8AB",
"k. c #95A2A5",
"l. c #98A3A3",
"z. c #92A5AB",
"x. c #9BA5AB",
"c. c #96AAAD",
"v. c #9AABAC",
"b. c #95ABB1",
"n. c #9AACB3",
"m. c #9AAEB8",
"M. c #96B0B4",
"N. c #9DB2B5",
"B. c #9DB4BA",
"V. c #A0A3A0",
"C. c #A3ACB3",
"Z. c #ABAEB5",
"A. c #A2B2B3",
"S. c #AAB4B4",
"D. c #A4B4BC",
"F. c #AFB7BD",
"G. c #A5BABD",
"H. c #ACBBBE",
"J. c #B5BCBA",
"K. c #9DB5C2",
"L. c #A5B6C2",
"P. c #A4BBC3",
"I. c #ABBCC3",
"U. c #A5BCC9",
"Y. c #AABECA",
"T. c #B3BDC4",
"R. c #ACC1C5",
"E. c #ADC1CA",
"W. c #B3C3C4",
"Q. c #BAC4C5",
"!. c #B4C5CC",
"~. c #B9C5C9",
"^. c #AEC5D1",
"/. c #B2C6D2",
"(. c #B5CBD5",
"). c #BBCCD5",
"_. c #B6CDDB",
"`. c #BBCED9",
"'. c #BCD0D7",
"]. c #BED3E0",
"[. c #C6D1CF",
"{. c #C3D3DD",
"}. c #CED5DD",
"|. c #C1D5E2",
" X c #C5D9E5",
".X c #CBDAE4",
"XX c #E0E5EE",
/* pixels */
"p p p r r r r r r r u u i t r r u i y r r u p u u u u p r r p p p p t r y y r r ",
"p p r p r r r r r t r r r t r r r u p p a a a u u p p p p r u p u p r 9 u u r u ",
"r r r r p u r r r 2 t t u t r s M R W E ! ~ { ~ R z p p p p p p p p u t p p t y ",
"r p p p u r r r i r u y i t v ~ E v z d a z M !  . .D p p p p p p s y u p p u i ",
"y y y i p u u r t u u i y N ~ B a r 1 > < 2 r p M ~ X.z r u p p u p u r p p u p ",
"s p p u r r u u r t r u 2 B W d 1 & & & & ; : < 6 z  .R r r u p u u i u u u u p ",
"p p u u u u p p t t c W X.X.N p > + + + + O + = 5 p R 7.%._ z p r p u u u u r p ",
"p p u r u u p p N ,.p.,.&.^ x d r & o o o o # ; 6 6 z w.T.Y.C.8.N s r r u u r p ",
"u p i t r p ! p.H.R.u.l Z s x x v 2 O $ @ @ , u u 6 6 / d.h.{..X{.C.7.z p p p u ",
"u u y u r ..I.E.c.1.) , H d x v W p $ % $ @ r D u 6 5 S t._ x.K.I.).{.q.u p u r ",
"t u p s 8.!.`.Y.) + X X T [ B B W 2 o O o o < D u 6 f %.y., 5 5 m y.~.T.! u u r ",
"r u v w.F.S.Y.(.M.h y i &.M.M.j.p.N > : : ; 1 -.f.n.Y.Y.K.( { A H d.x.T.F.R u p ",
"r u W G.a.*.m.L.U.&.^ J ) j.B.G.G.-.t : < : 2 l. X|._._.y.! 0.A Y :.y.i.f.f.a p ",
"t i ,.N.j.5.B.U.P.1.' =.` u.j.G.v.} t 2 1 % & 0.|.|._.Y.$.n S L ) e.D.L.f.(.%.u ",
"t c ,.h i i l z.U.@.) ) Z =.c.G.v.X.N v m g g 7.]._.(.1.3 5 f A @.q.L Q / q.f.g ",
"u z ` + . $ = >.K.V ` +.P l k $.v.i.$.=.1.%.1.L.Y.t.A q 0 e w w =.S o *   9 y.z ",
"u c &.9 $ = 9 d.s.C &.4.>.T X . k ` i A :.A b ' i   . C H T P 3 &.L $ = . $ n p ",
"p j [ :.>.L ;.a.U F ,.u.u.>.= X 9 ) Q @.:.>.[ Y , . = @.*.4.b.K Z 9.S b ' 9 j p ",
"s p z ) / Q J j i k g.a.4.>.h 4 r j j ..:.[ c j 5 : h 4.u.s.E.:.q m R _ $.A f p ",
"s d a j g p u p p N j.&.P h w w u p g j z z z z z k l F +.6._.y.p u p p i p p u ",
"p j a a p p y y u ^ 4.k 8 - - h p u u i p p p p a Z q 0 G O.K.f.p p p p p p p p ",
"d p p u u y p p p _ >.e 8 7 - h i u r u s p p p p j q C U o.K.x.s p p p p p p p ",
"p a p p t y p s s N ,.] T Z 8 s p u u p p y y p g g w #.2.2.m.%.p s p p p y p z ",
"p p a p p p s s t _ N.i.>.] H Q p u u p y u u s g J / b.Y.L.L.1.p p p u u u p p ",
"p p p p p p p p p } v.g.3.] H I p y u u p p p s g J &.m.P.!.L.q.p p p p p p p u ",
"p p y p p p z p p e.v.g.4.] l ^ z i u u p p p s a / [ b.U./.I.y.p p p p p p p u ",
"p p p y p p p p p i.G.g.5.*.] >.z p p u u p p p p :.,.m.E./.{.x.p p p p p p p r ",
"p p p p p p p p p r.R.j.j.u.5.e.s p p u p y p p p q.c.G.^./.|.p.u p p p p p p p ",
"z p p p p z p a d l.R.M.b.b.z.f.s p s p y p p u s r.N.E.(./. Xf.p p p z p z p p ",
"p a p p p p p p | R.R.B.B.D.L.D.! p p p p p p u Q v.D.E.(./.|.`.( p p p z p p p ",
"a p p p p p p p k.~.R.P.P.E.Y.E.-.p p p y p p y -.v.D././.).|.{.y.p y p p p p r ",
"z z p a p j p n S.W.B.M.P.I.Y.(.t.z p p p s p p e.N.N././.(.).{.x.p r p p p u p ",
"z z a p p j ! l.W.v.T F K 5.U.(./.x.! a p p m _ 1.M.d.>.#.<.d.{.{.x.D u p p p p ",
"a p p p p E S.Q.H.=., O * C a./.`..XT.S u n J I ,.e.[ 4 $ 3 o.Y..XXXT.n p p p p ",
"p p p a p { J.[.Q...` ,.:.A / Y.`.}.Z.R p u 4 I p...< Q %.:./ L.XXXXT.D p g p p ",
"p p p a p a R 7.V.-.A.R.Y.s.( C.-.! n p p r < i N m i z.P.!.d.f.C.w.D z p z a z ",
"a p p d p d p p a B E.(.).Y.S a p p a p p p p p p i Q H./.(.C.M a p p a a a a p ",
"p p p p p p p p p M I.`.`.f.u u p p a p p p p p p p N G.(.'.x.p a a p p p a a a ",
"p p p p p p p p p z f.P.D.( p p p z a p p p p p p p s e.I.I.8.p u p p p p a a a ",
"z z p p p p z z d z z z b a z z a z p z p p p p u p p c J m j p a u u p p p p p "
};
