/* XPM */
static char *_b45911ebf3b4b6feb1ea51d22e54638eAYNCx7FesT5H1rm[] = {
/* columns rows colors chars-per-pixel */
"40 40 242 2 ",
"   c #040200",
".  c #0C0401",
"X  c #0D0A04",
"o  c #0C0C09",
"O  c #080804",
"+  c #140B03",
"@  c #1B0C04",
"#  c #120D0B",
"$  c #170702",
"%  c #14120C",
"&  c #1C130B",
"*  c #1A1508",
"=  c #0F1417",
"-  c #141512",
";  c #1B1514",
":  c #1C1A15",
">  c #11131D",
",  c #1A151D",
"<  c #1B1B18",
"1  c #0F0F0F",
"2  c #230E03",
"3  c #23130B",
"4  c #2A140C",
"5  c #28190B",
"6  c #371908",
"7  c #221514",
"8  c #241A14",
"9  c #2C1B14",
"0  c #241C1B",
"q  c #2B1E1B",
"w  c #271616",
"e  c #321E13",
"r  c #331E1A",
"t  c #3C1D15",
"y  c #38230F",
"u  c #2C221B",
"i  c #262217",
"p  c #3B2215",
"a  c #34231C",
"s  c #3C251C",
"d  c #3D2A1D",
"f  c #34251A",
"g  c #0C0E28",
"h  c #120F29",
"j  c #0D122C",
"k  c #0F1224",
"l  c #121324",
"z  c #1A1523",
"x  c #13132D",
"c  c #1A1A2B",
"v  c #060E35",
"b  c #090E34",
"n  c #070E39",
"m  c #061135",
"M  c #0B1234",
"N  c #04123C",
"B  c #0B133C",
"V  c #0D193E",
"C  c #0E1935",
"Z  c #151B35",
"A  c #1B1C33",
"S  c #14143C",
"D  c #141B3C",
"F  c #1A1D3B",
"G  c #171536",
"H  c #231C23",
"J  c #231D2B",
"K  c #271B26",
"L  c #2B1C32",
"P  c #271D38",
"I  c #1C223A",
"U  c #1E202D",
"Y  c #262023",
"T  c #2D2424",
"R  c #2A232B",
"E  c #2D292C",
"W  c #25232C",
"Q  c #332523",
"!  c #392721",
"~  c #342A24",
"^  c #3C2C23",
"/  c #31242B",
"(  c #342A2B",
")  c #3B2C2B",
"_  c #3B312E",
"`  c #232536",
"'  c #2C2433",
"]  c #2C2339",
"[  c #2A2839",
"{  c #322B33",
"}  c #32253C",
"|  c #332C3C",
" . c #362A37",
".. c #363134",
"X. c #3C3434",
"o. c #34313C",
"O. c #3B333B",
"+. c #4A1903",
"@. c #49290B",
"#. c #452A13",
"$. c #442B1C",
"%. c #4B2C1B",
"&. c #472717",
"*. c #542E1C",
"=. c #512816",
"-. c #4A321C",
";. c #53351C",
":. c #573419",
">. c #54240A",
",. c #752900",
"<. c #763C0F",
"1. c #643418",
"2. c #723C17",
"3. c #432C23",
"4. c #412F2B",
"5. c #472921",
"6. c #453123",
"7. c #4C3324",
"8. c #44332B",
"9. c #4A352C",
"0. c #4C3C2D",
"q. c #533623",
"w. c #5A3C25",
"e. c #543C2B",
"r. c #563826",
"t. c #453434",
"y. c #4A3634",
"u. c #433934",
"i. c #4C3B35",
"p. c #4C3C3A",
"a. c #44383B",
"s. c #513E3D",
"d. c #553B33",
"f. c #512A23",
"g. c #633C26",
"h. c #653E2B",
"j. c #673B25",
"k. c #7C441E",
"l. c #7F400B",
"z. c #5C432B",
"x. c #4E4236",
"c. c #5B4434",
"v. c #59453A",
"b. c #66462B",
"n. c #624432",
"m. c #664A37",
"M. c #704E34",
"N. c #784A32",
"B. c #6A513B",
"V. c #745236",
"C. c #79563D",
"Z. c #7F613F",
"A. c #040C42",
"S. c #061444",
"D. c #0A1344",
"F. c #06144B",
"G. c #0A144C",
"H. c #0C1B46",
"J. c #131543",
"K. c #131D43",
"L. c #1A1D43",
"P. c #131C4A",
"I. c #151848",
"U. c #0B1652",
"Y. c #0C1952",
"T. c #061550",
"R. c #141D55",
"E. c #231D42",
"W. c #182248",
"Q. c #192556",
"!. c #232443",
"~. c #222249",
"^. c #24294C",
"/. c #2B2B4C",
"(. c #2B2945",
"). c #352C44",
"_. c #332E4C",
"`. c #382B46",
"'. c #2F304B",
"]. c #3B3344",
"[. c #33314E",
"{. c #3C344B",
"}. c #3A3947",
"|. c #252B53",
" X c #2D2E53",
".X c #242B5B",
"XX c #282B57",
"oX c #322E52",
"OX c #2D3253",
"+X c #2A345D",
"@X c #3B3654",
"#X c #3B3A54",
"$X c #33345A",
"%X c #373757",
"&X c #373B64",
"*X c #293065",
"=X c #423445",
"-X c #493D4D",
";X c #453947",
":X c #563F42",
">X c #433D5D",
",X c #443D54",
"<X c #413D60",
"1X c #4B4347",
"2X c #5C4641",
"3X c #5B4943",
"4X c #554549",
"5X c #494258",
"6X c #554859",
"7X c #5C5255",
"8X c #644B43",
"9X c #664D4A",
"0X c #685143",
"qX c #775947",
"wX c #665253",
"eX c #6B5459",
"rX c #755B59",
"tX c #7C6258",
"yX c #7F654A",
"uX c #454565",
"iX c #524C66",
"pX c #5C5266",
"aX c #5C526B",
"sX c #685769",
"dX c #746777",
"fX c #8B4612",
"gX c #A0541A",
"hX c #895836",
"jX c #8D512A",
"kX c #9B6537",
"lX c #C67436",
"zX c #845C48",
"xX c #826349",
"cX c #98795C",
"vX c #8D6951",
"bX c #9B7B6C",
"nX c #846665",
"mX c #B47043",
"MX c #AD896B",
"NX c #CC804C",
"BX c #655F81",
"VX c #706988",
/* pixels */
"c Z Z C V V V V S W.F S B K.S.N V C m m b b M b M M m m M M B M b j h g l > = = ",
"Z c Z D V H.K.K.S F L.M K.S.S.S.m m m m v b b b b b b b M m m m b h j x l l > = ",
"Z Z D V H.P.W.K.D K.^.M L.m H.N N m m m n n n n n n n n m m m M b b b h x l l > ",
"A D I H.W.Y.W.W.W.^.%XC W.m Q.m N N N N S.n D.A.B B B B V M B B S S S G x j l k ",
"I I V W.H.Q.Q.W.I |.uXj I W.+XN H.H.H.F.S.F.F.D.G.D.D.D.S.B B J.J.S S S G x h h ",
"W.^.W.Q.Q.Q.Q.Q.W.OXuXI I OXuXV H.F.S.F.F.F.T.T.A.A.D.D.D.B D.B J.J.J.P G G x h ",
"'.^.^.Q..XQ..X+XOXOX#X'.I }.uXD H.T.T.F.F.T.T.T.U.G.G.G.D.J.S S E.E.E.E.P G G G ",
"}.OXOX+X+X+X+X+X%X'.#X}.I }.#XI H.Y.Y.Y.T.Y.U.Y.U.U.G.I.I.J.J.J.E.E.E.E.P F J x ",
"iX5X<X&X&X$X&XOX%X[.` O.].}.5X'.XXU.U..X.XU.U.R.R.R.U.I.I.R.E.E.,XE.P `.`.P ] | ",
"4X7XpXiX@X/.%XuX5XpX6X-XO.O.1Xo./.XXXXR.A.A.R.*XR.R.I.XXXXE.E.E.>X`.} =X,X{.).].",
"$ y.dXdX{.> A 5X;X ./ 4X7X4X7X7X>X<X&X$X.X.X*X*X*X*XXX*X$XoXoX`.aX-X=X-X-X].] J ",
"6 &.0.v.O.K J =X1X/ 0 p.9Xa.X.-XsX>X<XBXBX<X*X&X&X&XXXoX@X>X>X>XsX>X-X-X=X} H z ",
"j.j.b.m.p.~ / a.7XwX8Xs.2X:X9.t.:X-XdXVXBX>X$X<X$X$XoX!.oXiXaXiX-X-X-X=X .} K L ",
"fXvXMXbXm.9 a s.wX8X8X8XtXtX2XeX:XeXrXpX;X{._._.oX%X%X_.>XaXsX-X=X-X-X=X`.] L ] ",
"kXkXhXM.e.5.8.i.rX^ t d.tX0X$.8X9XnXeX=X .`.`.!.>X%X@X,X5X5X-X=X=X=X=X} L } } L ",
"fX<.<.<.:.;.%.5.n.5.&.9.9Xd.r 8X9XnXnXeX=X} {.>XiX%X[.>X>X`.} `.} `.} L L } } ] ",
",.,.,.<.2.>.+.j.h.=.*.=.C.e.y v.zXbX6Xy./ ).)./. XXX&XuX%X/.oX_._.(.`.`.`.`.`. .",
"lXlXNXmXjX+.+.N.zXj.h.g.qXc.6.B.h.zX8X:X{ }.@X&X X+X&X&X$X XoX_.,X`.`.`.L L L R ",
"gXgXfXk.jX1.1.h.zXj.j.j.vXc.7.0Xh.rX:X:XY [ '.I ^.W.XX$X/./.@X@X@X{.{.).L J R  .",
"fXjXkXhXN.f.f.h.zXj.:.b.zXe.-.c.s.f.t ) H o.#XI W.D L.~.!.(._.).[ | } { } K K  .",
"+.<.hXN.j.f.n.xXqXg.g.b.Z.;.;.;.r.5.3 ~ R ].#X'.^.D D D x x J z c Y z H E K ; : ",
"+.+.+.6 4 6 6 t *.*.g.b.V.;.z.-.3.3.u X.T W ` I ` Z A A c l z z > , = , ..E - ; ",
"6 =.&.4 4 4 r p 6 &.*.b.M.;.z.z.d 6.3 ( E W U [ I Z A ` A J ' J < U = U ;X..< 0 ",
"&.f.5.w Q ) a e $.g.M.V.M.;.b.;.c.x.3 ~ ..E c ` I U [ [ ' R { { o...W E 1XX.; : ",
"&.y.y.w / t.Q a z.B.B.Z.V.:.V.;.B.0X3 u.( X }.| o.c c W ` E E , O.[ R { 1X..Y Y ",
"r y.y.w  .t.K p m.B.z.V.Z.:.Z.#.x.B.5 ^ 1X~ X.R E W o.O...E / Y |  .W ' }...Y E ",
"r :Xy.7 ) a.u d * b.Z.MXMXV.MX@.d c.f 5 9._ T R H W ..{ , , ~ X.O.].R J O.{ 0 ( ",
"s :Xy.7 ( u.f 0.x.Z.MXMXZ.b.vXz.#.z.m.6.d f w X.( ..X.0 .   ; 0 O.=X/ H X./ 8 ( ",
"f.d.y.r 8.p.d 0.Z.w.z.@.@.;.z.;.#.;.cXtX7.^ r ) q / ) / ; ; 8 ; { ..K 0 ..{ i ~ ",
"5.r.y.a 8.i.^ $.@.y b.@.@.w.@.#.@.@.yX0Xt s r r r u T K 0 E ( R T ~ T Q _ x.x.x.",
"f.5.%.t f 9.d y B.b.Z.b.V.b.;.n.;.=.M.;.6 3.p r p.t.) 0 - < E ~ T u ~ ^ f _ v.v.",
"y.+.t 4 3 d d y z.w.;.;.vXB.w.z.;.V.xXz.r.m.4.! a ( ) T : T X.X.Q i ~ f * 9 i.0.",
"9X9.&.4.v.9.f d 9.c.z.0.B.z.$.7.%.n.z.7.7.v.2Xt.Q ) X.) T T T ( Q ) y.4Xv.a w ^ ",
"f.5.5.d.2Xy.e 9 f ^ $.6.e.6.y #.$.7.p 2 2 r ) ) T 0 ; H ( X.( , Q ( ( p.4X9.4 3 ",
"$ 2 3 r ^ a @ . + 3 s 8.0.6.d d e y 6 2 $ @ 7 & 7 0 K u T ( ( ~ / t.) ( 4.4.! s ",
"9 r 4 3 9 9 & + . . & 9 5 5 y e 9 y u 9 3 @ . . # 0 ~ T 0 i ( x.) 4.) ! ) ) 4.y.",
"! u +   + @ X X i * * * + + * 5 d u 5 & + + X o # # X + ; Q ) _ p.t.4.p.wX3Xt.) ",
"u.) & + % : % % < i i i i * + + i 8 8 % X X o % #       + u f u ! r w ! 4.a 2 7 ",
": & O   o X   O   o % : u *   X % : < - - % 1 o o % X O X + 3 9 9.y.4.! ! r ! 8.",
"% + O X - o o = < < O   - * X i % ; : % o - - 1 ; ; ; + . + + @ ! 3.a 4 Q 4./ 9 "
};
