/* XPM */
static char *_20c843f1b6c42d2a1ca2843979b0e07qEbC57UCdWD2OyG0[] = {
/* columns rows colors chars-per-pixel */
"40 40 153 2 ",
"   c #050507",
".  c #060608",
"X  c #07080A",
"o  c #090A0D",
"O  c #0D0E12",
"+  c #0F1015",
"@  c #111215",
"#  c #13151B",
"$  c #16181E",
"%  c #18181B",
"&  c #161920",
"*  c #1A1C24",
"=  c #1C1F28",
"-  c #1F2126",
";  c #1E212A",
":  c #222325",
">  c #21252D",
",  c #25282E",
"<  c #28292E",
"1  c #232731",
"2  c #252A33",
"3  c #2A2D35",
"4  c #2A2E39",
"5  c #2F3136",
"6  c #2D323C",
"7  c #323336",
"8  c #34363C",
"9  c #36383E",
"0  c #3A3B3D",
"q  c #2F3441",
"w  c #313642",
"e  c #343944",
"r  c #3C3E42",
"t  c #363D49",
"y  c #393F4B",
"u  c #3F4144",
"i  c #3C414C",
"p  c #3D4451",
"a  c #464646",
"s  c #484847",
"d  c #44464A",
"f  c #48474F",
"g  c #47484A",
"h  c #4B4B4B",
"j  c #404754",
"k  c #444955",
"l  c #4D4E51",
"z  c #454C5A",
"x  c #484F5C",
"c  c #4E5055",
"v  c #4C525D",
"b  c #515253",
"n  c #52555C",
"m  c #5A5B5C",
"M  c #4C5463",
"N  c #4E5768",
"B  c #4F5868",
"V  c #515661",
"C  c #535A65",
"Z  c #5B5E63",
"A  c #535C6B",
"S  c #5A5F6B",
"D  c #555F70",
"F  c #645F66",
"G  c #5A616E",
"H  c #576172",
"J  c #5B6474",
"K  c #5F6877",
"L  c #5C6678",
"P  c #5E697A",
"I  c #62666C",
"U  c #6A666D",
"Y  c #696A6D",
"T  c #606672",
"R  c #626A75",
"E  c #6D6F71",
"W  c #626C7D",
"Q  c #696C79",
"!  c #67707D",
"~  c #6B727C",
"^  c #70757A",
"/  c #74787B",
"(  c gray50",
")  c #636E81",
"_  c #667183",
"`  c #6B7484",
"'  c #677489",
"]  c #6A7589",
"[  c #6D798C",
"{  c #737A87",
"}  c #747C8A",
"|  c #6F7D92",
" . c #727E91",
".. c #7C838E",
"X. c #758194",
"o. c #7C8594",
"O. c #79869A",
"+. c #7D8B9D",
"@. c #7E8CA0",
"#. c #808488",
"$. c #87898C",
"%. c #848A96",
"&. c #888894",
"*. c #838C9B",
"=. c #888E99",
"-. c #8F949A",
";. c #93969B",
":. c #828FA1",
">. c #8492A4",
",. c #8B95A3",
"<. c #8F98A6",
"1. c #8794A8",
"2. c #8895AA",
"3. c #8B98AA",
"4. c #929AA6",
"5. c #999EA3",
"6. c #8F9DB2",
"7. c #929FB1",
"8. c #9BA4AE",
"9. c #8FA1B8",
"0. c #92A0B4",
"q. c #9BA4B0",
"w. c #95A5BC",
"e. c #9AA8BA",
"r. c #A4ABB4",
"t. c #A2AEBC",
"y. c #A9B3BD",
"u. c #B5B8BC",
"i. c #BABDBF",
"p. c #A2AFC1",
"a. c #A0B0C5",
"s. c #A6B4C6",
"d. c #ACB8C6",
"f. c #A1B2C8",
"g. c #A7B7CC",
"h. c #A7B8CC",
"j. c #ACB9C8",
"k. c #AFBDCD",
"l. c #B2BDCA",
"z. c #AEBED4",
"x. c #BDC2C8",
"c. c #BFCBD8",
"v. c #BACBDE",
"b. c #BECEDD",
"n. c #BECEE0",
"m. c #C1C8D0",
"M. c #C2CFDE",
"N. c #C3D2E2",
"B. c #D3DAE2",
"V. c #D5DFEA",
"C. c #D0DEED",
"Z. c #DCE2E7",
"A. c #D9E4EE",
/* pixels */
"s s g a s s g a a a a a a a a m / J P o.,.J x s s g g s s s s s h h h s s s s s ",
"s s a g a a a a a a a a a a b i.A.P M k.M.+.1.M f h g s s s h g h h h h h h h s ",
"s s s g a a a a a a a a s s m Z.m.J 2 ! :.) J p d g s s s g h h h h h h h h h s ",
"s s g g s s s a s s h h h h b ..%.o.k M o.&.Q 8 0 s h h h h h h h b h h h h h h ",
"h g h s s s s h a a a a h h h u d %.S 7 f U F 2 a h h l h h s h h h h h s s h s ",
"g s s h s s g h Z J K ~ ~ R n h Z y # . O # $ 7 s s s s h h s h h h h h l h h s ",
"g g s s a a f k | ' a.C.v.! A _ ` M y p e 6 q d h l n m n m n l h l h h h h s l ",
"s s h s h ^ *.W N ' x.A.d.w & P 7.3.@.O.' L A N x S A V v S R G n b b h l h h h ",
"l l l b ;.c.o.M | k.M.e.W #   , ` ,.7.2.+. .[ [  .' ) ) ] ` D V D x h h h h g a ",
"h h h Y r.] M W >.y.{ A ;     & W :.e.f.g.f.6.2. .) J  .1.7. .x M d h h h h h g ",
"s a s #.=.p i A 0.R 2 # X     + = 4 z  .n.V.j.} 3 ; * x 7.2.W y e y a h s s h h ",
"s m ;.5.} p q D K e i & o o + $ = = 2 y J x k & $ > e : 1 e 4 y x e a a g g h s ",
"b u.N.D & % $ > 0 c } 4...G 6 ; = * @ # u 5 > # $ & 5 y + o & e R s a a a s s s ",
"( Z.:.*.%.v , - a h h I ~ k > # o . . o % % * % @ # + ; & O # > w a g a s s h h ",
"$.;.> > i w 4 9 a a h a b a 5 # . . . . + O O * & & & @ # # > 4 * 7 h h l l l l ",
"Z Q > > ; , : a h a a h h h g 3 $ O o o @ - O + = 4 = O # # = J C C b h h s s h ",
"f t 2 & - % 0 h s h h h g a V W x t w & - ; O X * y 1 2 # # $ k S p c g g s s s ",
"s f T k , % 7 s l l l U Z d J V j A 0.A > @ O X O t i 2 # # + i k & v Z s s h s ",
"s l *.o.4 , : < u l E ,.} } M 4 1 M z.w.L i @ O X J *.# + 1 A 3.:.4 = c b h h l ",
"s l n 5 & 7 h a r b u.o.e l u > 6 N g.h.9.:.z O o ` %.# ; { 8.b.s.p , e 7 a h l ",
"l r * @ O % 0 h s ( B.-.} V l > w M w.e.p.1.v O . 2 3 # H N.8.j.s.M < : @ - 0 h ",
"s a : @ O @ : 0 s 5.l.<.o.k 2 t p x :.p.t.[ 6 8 v 2 o & w 3.i o._ x a - - : % 7 ",
"h s a a a a s s F l.<.:.M : # p q y H s.7.M a S i * + ; # B k _ J j s a k 2 < s ",
"s s s s h h b s #.t.O.*.6 6 ; i 2 t L 9.J d s u 4 * + * * 2 p N V e s 0 0 r l b ",
"l s s s s s s h =.] [ ,.T i 4 q 4 w ' [ i s s s u w * # * * 4 p x 8 s h l h l s ",
"s h s s s s s b ,.B K K G 8 2 q q p p i a h h h g z 6 * # # 1 q t 0 g h h s s s ",
"h s h h h h h F 3.P e e 2 $ + 6 p M t r s h h h h v k > & # ; q 4 u h h h h h l ",
"h l l b b h l s ~ 0.A K p # $ 3 q q 6 s s s h h h G k > & & * q 3 a h h h h l h ",
"h h h b h b h h l ~ T i 2 # O > y q e g h a s h h v q ; * = ; 1 < s l h h h h h ",
"h h h h h h h s h ^ %.G q 2 2 6 4 8 a g g g h h n M e ; ; * ; q 0 h h b b b b h ",
"h s s h s h h s G ..e 4 ; ; ; 2 1 a g g s h h h V >.B 2 * & * 2 a h h b h b b b ",
"h h h s h h h h V 4 2 = * = $ & 2 g s s s s h c J A > 4 ; # & ; s b h h b h h b ",
"h h h h h h s h 8 ; > * = 1 = ; u h h h h h h h a 4 $ & & = = 5 h b b h l h h h ",
"h h h h h h h h d w > 1 > = 4 d h h h h h h h h 9 3 - = & = ; r b h l h l s h h ",
"s s h h h l h l M y 1 e e 8 s h h h h h h h h h s s r > = 2 w g h h h s s l h h ",
"s s s s h h h m ] y x O.d h h h h h h h h h h h g g g q ; i ` b h b h h h h b b ",
"h h h h h h h V } A { q.l l h l h b h h h h h h h l g w 2 k 3.T b s h h l b b b ",
"h h h h h h c C :.A w w t 8 s l h b h b b h b l h c k 8 1 k _ J v e e r h l h l ",
"h l h h b h m j v A J J A j b b h h b h h h h h h n W J J ' A p R W L v b h h g ",
"h h h b h b l e W X.J M A A J ] I h h b h h h s h b W ` W z , k ~ ` P M v k s s "
};
